<?xml version="1.0" encoding="iso-8859-1"?>
<!-- Uploaded to: SVG Repo, www.svgrepo.com, Generator: SVG Repo Mixer Tools -->
<svg fill="#000000" height="800px" width="800px" version="1.1" id="Layer_1" xmlns="http://www.w3.org/2000/svg" xmlns:xlink="http://www.w3.org/1999/xlink" 
	 viewBox="0 0 512 512" xml:space="preserve">
<g>
	<g>
		<path d="M489.948,220.69H105.931V114.75c0-34.069,27.724-61.784,61.793-61.784H256c4.879,0,8.828-3.953,8.828-8.828
			c0-4.875-3.948-8.828-8.828-8.828h-88.276c-43.81,0-79.448,35.638-79.448,79.44v105.94H22.052C9.897,220.69,0,230.59,0,242.759
			c0,12.168,9.897,22.069,22.052,22.069H35.31v114.754c0,34.057,27.716,61.767,61.795,61.795l-15.89,21.188
			c-2.931,3.901-2.138,9.435,1.767,12.358c1.586,1.194,3.44,1.767,5.284,1.767c2.69,0,5.336-1.22,7.069-3.53l23.836-31.78h282.483
			l23.836,31.78c1.733,2.31,4.379,3.53,7.069,3.53c1.845,0,3.698-0.573,5.284-1.767c3.905-2.922,4.698-8.457,1.767-12.358
			l-16.369-21.824c30.131-4.12,53.446-29.942,53.446-61.158V264.828h13.259c12.155,0,22.052-9.901,22.052-22.069
			C512,230.59,502.103,220.69,489.948,220.69z M459.034,379.582c0,24.341-19.828,44.142-44.198,44.142H97.155
			c-24.362,0-44.19-19.802-44.19-44.142V264.828h406.069V379.582z M489.948,247.172h-22.086H44.138H22.052
			c-2.466,0-4.397-1.94-4.397-4.414c0-2.435,1.974-4.414,4.397-4.414h467.896c2.466,0,4.397,1.94,4.397,4.414
			C494.345,245.194,492.371,247.172,489.948,247.172z"/>
	</g>
</g>
<g>
	<g>
		<path d="M290.854,103.138l-8.828-26.483c-1.543-4.621-6.5-7.147-11.164-5.582c-4.621,1.543-7.121,6.543-5.578,11.168l8.828,26.483
			c1.233,3.698,4.672,6.039,8.371,6.039c0.922,0,1.862-0.147,2.793-0.457C289.897,112.763,292.397,107.763,290.854,103.138z"/>
	</g>
</g>
<g>
	<g>
		<path d="M241.138,79.901c-4.672-1.56-9.621,0.961-11.164,5.582l-8.828,26.483c-1.543,4.625,0.957,9.625,5.578,11.168
			c0.931,0.31,1.871,0.457,2.793,0.457c3.698,0,7.138-2.341,8.371-6.039l8.828-26.483C248.259,86.444,245.759,81.444,241.138,79.901
			z"/>
	</g>
</g>
<g>
	<g>
		<path d="M331.517,72.104l-26.483-17.655c-4.078-2.711-9.552-1.612-12.241,2.448c-2.707,4.056-1.612,9.539,2.448,12.241
			l26.483,17.655c1.508,1.004,3.207,1.483,4.888,1.483c2.854,0,5.655-1.379,7.353-3.931
			C336.672,80.289,335.578,74.806,331.517,72.104z"/>
	</g>
</g>
</svg>